<?xml version="1.0" standalone="no"?>
<!DOCTYPE svg PUBLIC "-//W3C//DTD SVG 20010904//EN"
 "http://www.w3.org/TR/2001/REC-SVG-20010904/DTD/svg10.dtd">
<svg version="1.0" xmlns="http://www.w3.org/2000/svg"
 width="920.000000pt" height="920.000000pt" viewBox="0 0 920.000000 920.000000"
 preserveAspectRatio="xMidYMid meet">
<metadata>
Created by potrace 1.16, written by Peter Selinger 2001-2019
</metadata>
<g transform="translate(0.000000,920.000000) scale(0.100000,-0.100000)"
fill="#000000" stroke="none">
<path d="M3585 6038 c-20 -59 -955 -2631 -1002 -2755 l-16 -43 -458 0 c-264 0
-459 4 -459 9 0 5 71 132 158 282 87 151 237 409 332 574 95 165 248 431 340
590 93 160 294 508 448 775 l279 485 -941 3 c-517 1 -947 0 -954 -3 -16 -6
-18 -835 -2 -835 6 0 10 26 10 58 0 31 9 100 20 152 47 231 204 432 416 531
145 69 165 71 587 76 214 3 377 1 377 -4 0 -5 -4 -13 -9 -19 -8 -8 -290 -493
-526 -904 -40 -69 -114 -197 -165 -285 -51 -88 -160 -277 -243 -420 -378 -655
-591 -1023 -609 -1052 l-20 -33 1061 0 1061 0 0 394 c0 374 -9 501 -24 327
-20 -245 -140 -448 -345 -582 -46 -31 -108 -60 -167 -79 -162 -52 -162 -89 3
368 79 218 154 424 166 457 l23 60 460 3 460 2 51 -142 c54 -150 266 -730 278
-760 7 -17 -5 -18 -154 -18 -136 0 -161 -2 -161 -15 0 -13 79 -15 650 -15 427
0 650 3 650 10 0 6 -62 10 -165 10 l-165 0 0 696 0 696 278 -5 c308 -5 350
-11 479 -74 119 -58 205 -166 232 -291 6 -30 11 -142 11 -255 l-1 -202 -102
-280 -103 -280 -132 -3 c-77 -1 -132 -7 -132 -12 0 -6 106 -10 280 -10 180 0
280 4 280 10 0 6 -52 10 -136 10 -126 0 -136 1 -129 18 4 9 43 116 86 237 44
121 83 227 86 235 4 8 10 -16 13 -55 4 -38 12 -90 19 -115 21 -76 83 -181 145
-248 67 -72 161 -123 263 -142 90 -18 245 -8 315 19 65 25 170 99 162 113 -4
5 -18 -2 -33 -15 -42 -41 -124 -77 -188 -83 -73 -7 -132 21 -180 84 -61 80
-73 146 -73 391 0 222 -10 350 -35 434 l-14 47 347 0 347 0 62 -173 c35 -94
109 -300 167 -457 l104 -285 -164 -3 c-98 -1 -164 -6 -164 -12 0 -6 204 -10
565 -10 396 0 565 3 565 11 0 7 -56 10 -177 8 l-178 -2 -188 514 c-103 283
-241 663 -307 844 -399 1100 -529 1450 -541 1450 -6 0 -50 -106 -100 -245 -49
-135 -182 -500 -296 -812 l-207 -567 -36 28 c-122 95 -291 166 -465 196 l-40
7 70 18 c268 69 471 233 541 440 29 85 26 242 -6 340 -74 228 -276 389 -590
472 -83 21 -100 22 -767 25 -473 3 -683 1 -683 -6 0 -7 58 -11 170 -11 l170 0
0 -1047 c0 -575 -2 -1044 -4 -1042 -2 2 -61 162 -131 354 -69 193 -153 422
-185 510 -70 191 -384 1061 -443 1228 -39 107 -60 139 -72 105z m1723 -122
c197 -49 322 -177 384 -391 21 -72 23 -100 22 -285 0 -177 -3 -215 -22 -283
-51 -184 -154 -272 -346 -296 -39 -5 -171 -12 -293 -15 l-223 -6 0 652 0 651
208 -6 c137 -4 228 -11 270 -21z m-1785 -831 c58 -159 156 -427 217 -594 60
-167 109 -306 107 -308 -2 -2 -208 -2 -459 -1 l-454 3 173 475 c95 261 198
544 230 629 l57 154 12 -34 c6 -19 59 -164 117 -324z m3020 120 c42 -115 142
-390 222 -610 80 -220 147 -404 148 -410 1 -5 -6 -9 -15 -8 -10 0 -164 1 -343
2 l-325 1 -29 58 c-16 32 -50 81 -75 109 l-46 51 90 249 c50 136 135 368 188
515 53 147 100 264 103 260 4 -4 41 -101 82 -217z"/>
</g>
</svg>
